<?xml version="1.0" encoding="UTF-8" standalone="no"?>
<svg
   xmlns:dc="http://purl.org/dc/elements/1.1/"
   xmlns:cc="http://creativecommons.org/ns#"
   xmlns:rdf="http://www.w3.org/1999/02/22-rdf-syntax-ns#"
   xmlns:svg="http://www.w3.org/2000/svg"
   xmlns="http://www.w3.org/2000/svg"
   xmlns:sodipodi="http://sodipodi.sourceforge.net/DTD/sodipodi-0.dtd"
   xmlns:inkscape="http://www.inkscape.org/namespaces/inkscape"
   inkscape:version="1.0 (1.0+r73+1)"
   inkscape:export-ydpi="550"
   inkscape:export-xdpi="550"
   inkscape:export-filename="/home/dmitry/Downloads/vectorpaint.png"
   sodipodi:docname="vectorpaint.svg"
   id="svg122"
   version="1.1"
   height="496"
   width="496"
   role="img"
   data-icon="meh"
   data-prefix="fas"
   focusable="false"
   aria-hidden="true">
  <metadata
     id="metadata126">
    <rdf:RDF>
      <cc:Work
         rdf:about="">
        <dc:format>image/svg+xml</dc:format>
        <dc:type
           rdf:resource="http://purl.org/dc/dcmitype/StillImage" />
        <dc:title></dc:title>
      </cc:Work>
    </rdf:RDF>
  </metadata>
  <sodipodi:namedview
     inkscape:current-layer="svg122"
     inkscape:window-maximized="1"
     inkscape:window-y="27"
     inkscape:window-x="54"
     inkscape:cy="256"
     inkscape:cx="142.51517"
     inkscape:zoom="1.6269531"
     showgrid="false"
     id="namedview124"
     inkscape:window-height="1016"
     inkscape:window-width="1866"
     inkscape:pageshadow="2"
     inkscape:pageopacity="0"
     guidetolerance="10"
     gridtolerance="10"
     objecttolerance="10"
     borderopacity="1"
     bordercolor="#666666"
     pagecolor="#ffffff" />
  <rect
     style="stroke-width:1.016"
     stroke="none"
     fill="none"
     y="0"
     x="0"
     height="100%"
     width="512"
     id="backgroundrect" />
  <defs
     id="defs113">
    <linearGradient
       y2="0.32694498"
       x2="0.96354151"
       y1="0.24881998"
       x1="0.21744776"
       id="svg_4">
      <stop
         id="stop88"
         offset="0.29557275772094727"
         stop-opacity="1"
         stop-color="#ebeb1a" />
      <stop
         id="stop90"
         offset="1"
         stop-opacity="1"
         stop-color="#1414e5" />
    </linearGradient>
    <radialGradient
       cy="0.49881998"
       cx="0.49869776"
       spreadMethod="pad"
       id="svg_5">
      <stop
         id="stop93"
         offset="0.49479150772094727"
         stop-opacity="1"
         stop-color="#ebeb1a" />
      <stop
         id="stop95"
         offset="1"
         stop-opacity="1"
         stop-color="#1414e5" />
    </radialGradient>
    <radialGradient
       r="0.5"
       cy="0.49881998"
       cx="0.49869776"
       spreadMethod="pad"
       id="svg_6">
      <stop
         id="stop98"
         offset="0.9244790077209473"
         stop-opacity="1"
         stop-color="#ebeb1a" />
      <stop
         id="stop100"
         offset="1"
         stop-opacity="1"
         stop-color="#1414e5" />
    </radialGradient>
    <linearGradient
       spreadMethod="pad"
       id="svg_7">
      <stop
         id="stop103"
         offset="0.9440102577209473"
         stop-opacity="1"
         stop-color="#ebeb1a" />
      <stop
         id="stop105"
         offset="0.9947915077209473"
         stop-opacity="1"
         stop-color="#1414e5" />
    </linearGradient>
    <radialGradient
       spreadMethod="pad"
       id="svg_8">
      <stop
         id="stop108"
         offset="0.9479165077209473"
         stop-opacity="1"
         stop-color="#ebeb1a" />
      <stop
         id="stop110"
         offset="0.9947915077209473"
         stop-opacity="1"
         stop-color="#1414e5" />
    </radialGradient>
  </defs>
  <rect
     y="0"
     x="0"
     height="497.61801"
     width="497.61801"
     id="rect165"
     style="fill:#1a1a1a" />
  <rect
     id="backgroundrect-4"
     width="100%"
     height="100%"
     x="337.14285"
     y="-81.440575"
     fill="none"
     stroke="none" />
  <g
     transform="translate(-0.48852926,-30.362297)"
     id="g261">
    <g
       id="g218"
       class="currentLayer"
       transform="translate(-3.0614415,23.171308)">
      <title
         id="title213">Layer 1</title>
      <path
         stroke-width="4"
         stroke="#53d34a"
         stroke-opacity="1"
         fill-opacity="1"
         id="svg_3"
         class=""
         d="m 20.000013,256 c 0,41.67226 33.763653,75.43591 75.435908,75.43591 41.672259,0 75.435909,-33.76365 75.435909,-75.43591 0,-41.67226 -33.76365,-75.43591 -75.435909,-75.43591 -41.672255,0 -75.435908,33.76365 -75.435908,75.43591 z m 60.83541,-14.6005 c 0,5.38394 -4.349732,9.73367 -9.733666,9.73367 -5.383933,0 -9.733665,-4.34973 -9.733665,-9.73367 0,-5.38393 4.349732,-9.73366 9.733665,-9.73366 5.383934,0 9.733666,4.34973 9.733666,9.73366 z m 48.212067,5.01892 c -4.50183,-4.01513 -14.05298,-4.01513 -18.5548,0 l -2.88969,2.58551 c -2.52467,2.25091 -6.57022,0.12167 -6.0227,-3.28511 1.21671,-7.66527 10.40285,-12.80586 18.2202,-12.80586 7.81735,0 17.0035,5.14059 18.22021,12.80586 0.5171,3.37636 -3.46762,5.56644 -6.02271,3.28511 z m -61.048339,30.81314 c 6.813566,8.18236 16.790574,12.83627 27.43677,12.83627 10.646199,0 20.623209,-4.68433 27.436769,-12.83627 4.13681,-4.92767 11.58915,1.27754 7.48276,6.23563 -8.66905,10.37244 -21.38365,16.33431 -34.919529,16.33431 -13.535878,0 -26.250479,-5.96187 -34.919525,-16.36473 -4.10639,-4.95809 3.406783,-11.1633 7.482755,-6.20521 z"
         fill="#4ad371" />
      <path
         stroke-width="4"
         stroke="#e2d53f"
         stroke-opacity="1"
         fill-opacity="1"
         class=""
         id="svg_1"
         d="m 252.10256,180.30768 c -41.8139,0 -75.69231,33.87842 -75.69231,75.69232 0,41.8139 33.87841,75.69231 75.69231,75.69231 41.8139,0 75.69232,-33.87841 75.69232,-75.69231 0,-41.8139 -33.87842,-75.69232 -75.69232,-75.69232 z m -24.41687,51.27544 c 5.40223,0 9.76675,4.36452 9.76675,9.76675 0,5.40224 -4.36452,9.76675 -9.76675,9.76675 -5.40224,0 -9.76675,-4.36451 -9.76675,-9.76675 0,-5.40223 4.36451,-9.76675 9.76675,-9.76675 z m 53.71712,58.6005 h -58.6005 c -6.47047,0 -6.47047,-9.76675 0,-9.76675 h 58.6005 c 6.47048,0 6.47048,9.76675 0,9.76675 z m -4.88337,-39.067 c -5.40224,0 -9.76675,-4.36451 -9.76675,-9.76675 0,-5.40223 4.36451,-9.76675 9.76675,-9.76675 5.40223,0 9.76675,4.36452 9.76675,9.76675 0,5.40224 -4.36452,9.76675 -9.76675,9.76675 z"
         fill="#eaea62" />
      <path
         stroke-opacity="1"
         stroke="#ce0a0a"
         stroke-width="4"
         id="svg_2"
         fill-opacity="1"
         class=""
         d="m 409.28204,180.56409 c -41.67225,0 -75.4359,33.76365 -75.4359,75.43591 0,41.67225 33.76365,75.4359 75.4359,75.4359 41.67225,0 75.4359,-33.76365 75.4359,-75.4359 0,-41.67226 -33.76365,-75.43591 -75.4359,-75.43591 z m -34.06783,70.56907 c 0,-2.82884 1.24713,-5.32309 3.19386,-7.11774 l -9.42949,-2.82885 c -2.5855,-0.76044 -4.04555,-3.49803 -3.25469,-6.05312 0.76044,-2.5855 3.46762,-4.01513 6.05312,-3.25469 l 24.33416,7.30025 c 2.58551,0.76044 4.04556,3.49803 3.2547,6.05312 -0.63877,2.09882 -2.55509,3.46762 -4.65391,3.46762 -0.15209,0 -0.33459,-0.0608 -0.5171,-0.0608 0.21292,0.82128 0.5171,1.61214 0.5171,2.49425 0,5.38394 -4.34973,9.73367 -9.73366,9.73367 -5.38394,0 -9.76409,-4.34973 -9.76409,-9.73367 z m 51.10174,46.9041 c -8.45612,-10.15951 -25.6117,-10.15951 -34.09824,0 -4.10639,4.95809 -11.61956,-1.27754 -7.48276,-6.23563 6.08354,-7.30025 15.02635,-11.49789 24.51667,-11.49789 9.49033,0 18.43313,4.19764 24.51667,11.49789 4.19764,5.01892 -3.37636,11.13288 -7.45234,6.23563 z m 23.29996,-56.85069 -9.42948,2.82885 c 1.91631,1.76423 3.19386,4.2889 3.19386,7.11774 0,5.38394 -4.34974,9.73367 -9.73367,9.73367 -5.38393,0 -9.73366,-4.34973 -9.73366,-9.73367 0,-0.88211 0.27375,-1.70339 0.5171,-2.49425 -0.18251,0.0304 -0.3346,0.0608 -0.5171,0.0608 -2.09883,0 -4.01514,-1.3688 -4.65391,-3.46762 -0.76045,-2.58551 0.6996,-5.29268 3.25469,-6.05312 l 24.33416,-7.30025 c 2.55509,-0.76044 5.29268,0.6996 6.05313,3.25469 0.76044,2.58551 -0.69961,5.29268 -3.28512,6.05312 z"
         fill="#d80808" />
    </g>
  </g>
</svg>
